<svg id="Layer_1" data-name="Layer 1" xmlns="http://www.w3.org/2000/svg" viewBox="0 0 110.39 218.45"><defs><style>.cls-1{fill:#f39200;stroke-width:3.02px;}.cls-1,.cls-2,.cls-3,.cls-4{stroke:#1d1d1b;stroke-linejoin:round;}.cls-2{fill:#1d1d1b;}.cls-2,.cls-3,.cls-4{stroke-width:3px;}.cls-3{fill:#b17f4a;}.cls-4{fill:#008d36;}.cls-5{fill:none;}.cls-6{fill:#f9b233;}</style></defs><title>Artboard 1</title><path class="cls-1" d="M101,80.78v65c-3.57-2.14-8.88-10.8-16.68-10.66-7.51.13-15.13,6.1-15.13,6.1s-8-7.24-15.35-7.2c-6.58,0-16,7.8-16,7.8s-7.17-5.53-13-6.12c-5.12-.52-11.28,7.09-14.22,10.08v-65A31.85,31.85,0,0,1,42.52,48.92H69.16A31.85,31.85,0,0,1,101,80.78Z"/><path class="cls-2" d="M70.93,191.32,55.84,214.16,40.51,191c1.23-1.47,6.58-7.52,13.65-8.11C64.43,182,70.34,190.44,70.93,191.32Z"/><path class="cls-3" d="M101,145.76,70.93,191.32c-.59-.88-6.5-9.33-16.77-8.47-7.07.59-12.42,6.64-13.65,8.11l-29.85-45.2c2.94-3,9.1-10.6,14.22-10.08,5.79.59,13,6.12,13,6.12s9.44-7.77,16-7.8c7.32,0,15.35,7.2,15.35,7.2s7.62-6,15.13-6.1C92.14,135,97.45,143.62,101,145.76Z"/><path class="cls-4" d="M24,14s.24,11.94,5.4,17.64S47.74,39,47.74,39a32.17,32.17,0,0,0-7-15.3C34.88,17,24,14,24,14Z"/><path class="cls-4" d="M54.94,39s1.77-10.39,5.22-15.66c0,0,5-7.78,16.38-13,5.43-2.46,12-3,21.78-5.4-4.66,15.66-10.66,20.63-16,25C71.93,38.52,54.94,39,54.94,39Z"/><path class="cls-5" d="M57.64,55.94v73.8H30.82V71.06A15.12,15.12,0,0,1,45.94,55.94Z"/><path class="cls-6" d="M45.94,55.94A15.12,15.12,0,0,0,30.82,71.06v58.68H18.22V78.8A22.85,22.85,0,0,1,41.08,55.94Z"/></svg>